<svg width="38" height="38" viewBox="0 0 38 38" fill="none" xmlns="http://www.w3.org/2000/svg">
<rect width="38" height="38" rx="5" fill="white"/>
<path d="M16.4818 22.6779L18.9975 20.2341L21.5132 22.6779L22.7687 21.4116L20.2798 18.9678L22.7687 16.4971L21.5132 15.2373L18.9975 17.6811L16.4818 15.2373L15.2263 16.4971L17.7152 18.9678L15.2263 21.4116L16.4818 22.6779ZM18.9971 29.909C16.453 29.2704 14.3631 27.7945 12.7272 25.4814C11.0914 23.1683 10.2734 20.6325 10.2734 17.8741V11.3683L18.9975 8.09082L27.728 11.3685V17.872C27.728 20.631 26.9088 23.1672 25.2706 25.4808C23.6323 27.7943 21.5412 29.2704 18.9971 29.909ZM18.9975 28.0256C21.028 27.3239 22.6857 26.0382 23.9707 24.1687C25.2557 22.2991 25.8982 20.2009 25.8982 17.8739V12.6533L18.9975 10.0408L12.0968 12.6564V17.8709C12.0968 20.1999 12.7393 22.2991 14.0243 24.1687C15.3093 26.0382 16.967 27.3239 18.9975 28.0256Z" fill="#E41446"/>
</svg>
