<svg width="22" height="22" viewBox="0 0 22 22" fill="none" xmlns="http://www.w3.org/2000/svg">
<path d="M8.89232 20.1663L8.43398 17.2788C8.14371 17.1719 7.83815 17.0268 7.51732 16.8434C7.19648 16.6601 6.91385 16.4691 6.6694 16.2705L3.96523 17.508L1.83398 13.7497L4.30898 11.9393C4.27843 11.8018 4.25933 11.6452 4.25169 11.4695C4.24405 11.2938 4.24023 11.1372 4.24023 10.9997C4.24023 10.8622 4.24405 10.7056 4.25169 10.5299C4.25933 10.3542 4.27843 10.1976 4.30898 10.0601L1.83398 8.24967L3.96523 4.49134L6.6694 5.72884C6.91385 5.53023 7.19648 5.33926 7.51732 5.15592C7.83815 4.97259 8.14371 4.83509 8.43398 4.74342L8.89232 1.83301H13.109L13.5673 4.72051C13.8576 4.82745 14.167 4.96877 14.4954 5.14447C14.8239 5.32016 15.1027 5.51495 15.3319 5.72884L18.0361 4.49134L20.1673 8.24967L17.6923 10.0143C17.7229 10.167 17.742 10.3313 17.7496 10.507C17.7572 10.6827 17.7611 10.8469 17.7611 10.9997C17.7611 11.1525 17.7572 11.3129 17.7496 11.4809C17.742 11.649 17.7229 11.8094 17.6923 11.9622L20.1673 13.7497L18.0361 17.508L15.3319 16.2705C15.0875 16.4691 14.8086 16.6639 14.4954 16.8549C14.1822 17.0459 13.8729 17.1872 13.5673 17.2788L13.109 20.1663H8.89232ZM11.0007 13.9788C11.8257 13.9788 12.5284 13.6886 13.109 13.108C13.6895 12.5275 13.9798 11.8247 13.9798 10.9997C13.9798 10.1747 13.6895 9.4719 13.109 8.89134C12.5284 8.31079 11.8257 8.02051 11.0007 8.02051C10.1757 8.02051 9.47287 8.31079 8.89232 8.89134C8.31176 9.4719 8.02148 10.1747 8.02148 10.9997C8.02148 11.8247 8.31176 12.5275 8.89232 13.108C9.47287 13.6886 10.1757 13.9788 11.0007 13.9788ZM11.0007 12.6038C10.5576 12.6038 10.1795 12.4472 9.86628 12.134C9.55308 11.8209 9.39648 11.4427 9.39648 10.9997C9.39648 10.5566 9.55308 10.1785 9.86628 9.8653C10.1795 9.5521 10.5576 9.39551 11.0007 9.39551C11.4437 9.39551 11.8218 9.5521 12.135 9.8653C12.4482 10.1785 12.6048 10.5566 12.6048 10.9997C12.6048 11.4427 12.4482 11.8209 12.135 12.134C11.8218 12.4472 11.4437 12.6038 11.0007 12.6038ZM9.99232 18.7913H12.009L12.3298 16.2247C12.834 16.1025 13.3114 15.9115 13.7621 15.6518C14.2128 15.392 14.6215 15.0788 14.9882 14.7122L17.4173 15.7663L18.334 14.1163L16.1798 12.5351C16.2409 12.2754 16.2906 12.0195 16.3288 11.7674C16.367 11.5153 16.3861 11.2594 16.3861 10.9997C16.3861 10.74 16.3708 10.484 16.3402 10.232C16.3097 9.97988 16.2562 9.72398 16.1798 9.46426L18.334 7.88301L17.4173 6.23301L14.9882 7.28717C14.6368 6.88995 14.2395 6.55766 13.7965 6.2903C13.3534 6.02294 12.8645 5.85106 12.3298 5.77467L12.009 3.20801H9.99232L9.67148 5.77467C9.15204 5.88162 8.66697 6.06495 8.21628 6.32467C7.76558 6.5844 7.36454 6.90523 7.01315 7.28717L4.58398 6.23301L3.66732 7.88301L5.82148 9.46426C5.76037 9.72398 5.71072 9.97988 5.67253 10.232C5.63433 10.484 5.61523 10.74 5.61523 10.9997C5.61523 11.2594 5.63433 11.5153 5.67253 11.7674C5.71072 12.0195 5.76037 12.2754 5.82148 12.5351L3.66732 14.1163L4.58398 15.7663L7.01315 14.7122C7.37982 15.0788 7.7885 15.392 8.23919 15.6518C8.68989 15.9115 9.16732 16.1025 9.67148 16.2247L9.99232 18.7913Z" fill="white"/>
</svg>
