<svg width="22" height="22" viewBox="0 0 22 22" fill="none" xmlns="http://www.w3.org/2000/svg">
<path d="M11.6882 10.3122H18.7694C18.6013 8.44829 17.8489 6.83266 16.5121 5.4653C15.1753 4.09794 13.5673 3.35315 11.6882 3.23092V10.3122ZM10.3132 18.7684V3.23092C8.31176 3.39898 6.62739 4.23162 5.26003 5.72884C3.89267 7.22606 3.20898 8.98301 3.20898 10.9997C3.20898 13.0163 3.89267 14.7733 5.26003 16.2705C6.62739 17.7677 8.31176 18.6004 10.3132 18.7684ZM11.6882 18.7684C13.5673 18.6462 15.1753 17.9014 16.5121 16.534C17.8489 15.1667 18.6013 13.5511 18.7694 11.6872H11.6882V18.7684ZM11.0007 20.1663C9.7326 20.1663 8.54093 19.9257 7.42565 19.4445C6.31037 18.9632 5.34023 18.3101 4.51523 17.4851C3.69023 16.6601 3.03711 15.69 2.55586 14.5747C2.07461 13.4594 1.83398 12.2677 1.83398 10.9997C1.83398 9.73162 2.07461 8.53995 2.55586 7.42467C3.03711 6.3094 3.69023 5.33926 4.51523 4.51426C5.34023 3.68926 6.31037 3.03613 7.42565 2.55488C8.54093 2.07363 9.7326 1.83301 11.0007 1.83301C12.2687 1.83301 13.4604 2.07363 14.5757 2.55488C15.6909 3.03613 16.6611 3.68926 17.4861 4.51426C18.3111 5.33926 18.9642 6.3094 19.4454 7.42467C19.9267 8.53995 20.1673 9.73162 20.1673 10.9997C20.1673 12.2677 19.9267 13.4594 19.4454 14.5747C18.9642 15.69 18.3111 16.6601 17.4861 17.4851C16.6611 18.3101 15.6909 18.9632 14.5757 19.4445C13.4604 19.9257 12.2687 20.1663 11.0007 20.1663Z" fill="white"/>
</svg>
