<svg width="23" height="23" viewBox="0 0 23 23" fill="none" xmlns="http://www.w3.org/2000/svg">
<path d="M11.4993 14.9982L14.9973 11.5003L11.4993 8.00241L10.4931 9.00866L12.266 10.7816H7.9056V12.2191H12.266L10.4931 13.992L11.4993 14.9982ZM11.4993 21.0837C10.1896 21.0837 8.95178 20.8321 7.78581 20.329C6.61983 19.8258 5.60161 19.139 4.73112 18.2686C3.86063 17.3981 3.17383 16.3798 2.6707 15.2139C2.16758 14.0479 1.91602 12.81 1.91602 11.5003C1.91602 10.1746 2.16758 8.9288 2.6707 7.76283C3.17383 6.59685 3.86063 5.58262 4.73112 4.72012C5.60161 3.85762 6.61983 3.1748 7.78581 2.67168C8.95178 2.16855 10.1896 1.91699 11.4993 1.91699C12.825 1.91699 14.0709 2.16855 15.2368 2.67168C16.4028 3.1748 17.4171 3.85762 18.2796 4.72012C19.1421 5.58262 19.8249 6.59685 20.328 7.76283C20.8311 8.9288 21.0827 10.1746 21.0827 11.5003C21.0827 12.81 20.8311 14.0479 20.328 15.2139C19.8249 16.3798 19.1421 17.3981 18.2796 18.2686C17.4171 19.139 16.4028 19.8258 15.2368 20.329C14.0709 20.8321 12.825 21.0837 11.4993 21.0837Z" fill="white"/>
</svg>
