<svg width="22" height="22" viewBox="0 0 22 22" fill="none" xmlns="http://www.w3.org/2000/svg">
<path d="M3.25858 20.3033C2.83693 20.3033 2.47129 20.1485 2.16167 19.8389C1.85207 19.5292 1.69727 19.1636 1.69727 18.7419V7.84058C1.69727 7.41743 1.85207 7.05051 2.16167 6.73982C2.47129 6.42912 2.83693 6.27376 3.25858 6.27376H8.80143V3.16409C8.80143 2.76089 8.94511 2.41448 9.23247 2.12486C9.51983 1.83524 9.87142 1.69043 10.2872 1.69043H11.7229C12.1323 1.69043 12.4819 1.83524 12.7715 2.12486C13.0611 2.41448 13.2059 2.76089 13.2059 3.16409V6.27376H18.7433C19.1664 6.27376 19.5333 6.42912 19.844 6.73982C20.1547 7.05051 20.3101 7.41743 20.3101 7.84058V18.7419C20.3101 19.1636 20.1547 19.5292 19.844 19.8389C19.5333 20.1485 19.1664 20.3033 18.7433 20.3033H3.25858ZM3.25858 18.7419H18.7433V7.84058H13.1949V8.52808C13.1803 8.96316 13.0255 9.30109 12.7304 9.54189C12.4353 9.78268 12.0994 9.90308 11.7229 9.90308H10.2845C9.90424 9.90308 9.56565 9.78177 9.26873 9.53916C8.9718 9.29653 8.81786 8.95951 8.80691 8.52808V7.84058H3.25858V18.7419ZM5.3176 16.3885H10.7947V16.0677C10.7947 15.7927 10.7259 15.5482 10.5884 15.3343C10.4509 15.1204 10.2752 14.9753 10.0613 14.8989C9.57246 14.7309 9.19051 14.6201 8.91551 14.5666C8.64051 14.5131 8.37315 14.4864 8.11343 14.4864C7.82315 14.4864 7.51378 14.5208 7.1853 14.5895C6.85683 14.6583 6.48635 14.7614 6.07385 14.8989C5.84468 14.9753 5.66135 15.1204 5.52385 15.3343C5.38635 15.5482 5.3176 15.7927 5.3176 16.0677V16.3885ZM13.0176 14.8531H16.9134V13.7072H13.0176V14.8531ZM8.11343 13.7072C8.45718 13.7072 8.74937 13.5869 8.98999 13.3463C9.23062 13.1057 9.35093 12.8135 9.35093 12.4697C9.35093 12.126 9.23062 11.8338 8.98999 11.5932C8.74937 11.3526 8.45718 11.2322 8.11343 11.2322C7.76968 11.2322 7.47749 11.3526 7.23687 11.5932C6.99624 11.8338 6.87593 12.126 6.87593 12.4697C6.87593 12.8135 6.99624 13.1057 7.23687 13.3463C7.47749 13.5869 7.76968 13.7072 8.11343 13.7072ZM13.0176 12.2635H16.9134V11.1177H13.0176V12.2635ZM10.3244 8.38013H11.683V3.2134H10.3244V8.38013Z" fill="white"/>
</svg>
