<svg width="22" height="22" viewBox="0 0 22 22" fill="none" xmlns="http://www.w3.org/2000/svg">
<path d="M7.31004 16.2814H14.6892V14.8461H7.31004V16.2814ZM7.31004 12.3855H14.6892V10.9503H7.31004V12.3855ZM5.09061 20.3033C4.66896 20.3033 4.30332 20.1485 3.9937 19.8388C3.6841 19.5292 3.5293 19.1636 3.5293 18.7419V3.25724C3.5293 2.83409 3.6841 2.46718 3.9937 2.15649C4.30332 1.84578 4.66896 1.69043 5.09061 1.69043H13.3745L18.4755 6.7914V18.7419C18.4755 19.1636 18.3201 19.5292 18.0094 19.8388C17.6987 20.1485 17.3318 20.3033 16.9086 20.3033H5.09061ZM12.5774 7.51974V3.25724H5.09061V18.7419H16.9086V7.51974H12.5774Z" fill="white"/>
</svg>
